<?xml version="1.0" standalone="no"?>
<!DOCTYPE svg PUBLIC "-//W3C//DTD SVG 20010904//EN"
 "http://www.w3.org/TR/2001/REC-SVG-20010904/DTD/svg10.dtd">
<svg version="1.0" xmlns="http://www.w3.org/2000/svg"
 width="203.000000pt" height="203.000000pt" viewBox="0 0 203.000000 203.000000"
 preserveAspectRatio="xMidYMid meet">
<metadata>
Created by potrace 1.11, written by Peter Selinger 2001-2013
</metadata>
<g transform="translate(0.000000,203.000000) scale(0.100000,-0.100000)"
fill="#000000" stroke="none">
<path d="M787 1954 c-13 -14 -7 -21 58 -69 64 -47 65 -48 65 -95 0 -42 4 -52
31 -74 17 -14 35 -26 40 -26 5 0 9 -9 9 -20 0 -11 -6 -20 -13 -20 -29 0 -97
-41 -97 -58 0 -11 -13 -23 -34 -30 -30 -11 -86 -76 -86 -100 0 -5 -13 -28 -30
-50 -16 -23 -32 -56 -35 -73 -3 -17 -10 -39 -15 -49 -11 -21 -6 -187 7 -219 7
-18 6 -32 -4 -50 -7 -14 -13 -51 -13 -81 0 -52 3 -57 40 -88 22 -18 44 -31 49
-28 11 7 21 -28 21 -74 0 -19 11 -56 24 -81 21 -39 27 -69 36 -195 6 -82 15
-183 20 -224 5 -42 6 -103 1 -140 -4 -36 -6 -71 -4 -77 7 -18 71 -27 99 -14
30 13 30 35 -1 102 -47 103 -59 386 -25 599 10 63 18 108 19 100 1 -8 4 -46 7
-85 3 -38 13 -83 21 -100 10 -21 14 -61 14 -135 -1 -58 4 -132 10 -165 7 -33
11 -102 11 -152 -2 -107 0 -108 88 -117 30 -2 68 -9 83 -15 52 -20 154 -10
164 16 8 22 -7 32 -67 43 -58 11 -196 74 -203 93 -8 24 -7 235 2 332 14 148
40 354 51 405 5 25 12 57 15 73 4 21 11 27 31 27 30 0 31 -4 37 -108 7 -113
39 -159 81 -116 9 8 16 26 16 38 0 13 6 29 13 35 21 17 20 95 -1 121 -16 19
-17 31 -10 84 5 33 6 79 3 101 -3 22 -7 52 -9 66 -1 14 -12 41 -23 60 -11 19
-28 66 -38 104 -20 83 -40 125 -60 125 -7 0 -16 8 -19 18 -3 9 -22 28 -41 41
-19 13 -35 32 -35 41 0 19 38 54 88 81 27 15 120 125 111 133 -19 15 -182 86
-209 91 -40 7 -85 -7 -117 -37 l-22 -21 -63 28 c-35 15 -68 29 -74 31 -5 3
-13 1 -17 -2z m101 -587 c4 -18 -10 -32 -68 -68 l-27 -17 26 55 c20 42 30 53
45 51 12 -2 22 -11 24 -21z m266 -11 c9 -19 16 -44 16 -56 0 -21 -1 -21 -31 8
-25 24 -30 36 -25 56 9 35 21 33 40 -8z"/>
</g>
</svg>
